<svg width="173" height="40" viewBox="0 0 173 40" fill="none" xmlns="http://www.w3.org/2000/svg">
<path d="M2.416 39C1.936 39 1.552 38.856 1.264 38.568C0.976 38.28 0.832 37.896 0.832 37.416V3.144C0.832 2.664 0.976 2.28 1.264 1.992C1.552 1.704 1.936 1.56 2.416 1.56H3.64C4.12 1.56 4.504 1.704 4.792 1.992C5.08 2.28 5.224 2.664 5.224 3.144V5.664C6.472 4.08 7.912 2.88 9.544 2.064C11.224 1.248 13.216 0.839998 15.52 0.839998C20.896 0.839998 24.736 3.096 27.04 7.608C28.192 5.544 29.824 3.912 31.936 2.712C34.096 1.464 36.544 0.839998 39.28 0.839998C43.264 0.839998 46.504 2.208 49 4.944C51.496 7.632 52.744 11.472 52.744 16.464V37.416C52.744 37.896 52.6 38.28 52.312 38.568C52.024 38.856 51.64 39 51.16 39H49.936C49.456 39 49.072 38.856 48.784 38.568C48.496 38.28 48.352 37.896 48.352 37.416V17.184C48.352 12.816 47.44 9.696 45.616 7.824C43.84 5.952 41.488 5.016 38.56 5.016C35.968 5.016 33.712 5.976 31.792 7.896C29.92 9.768 28.984 12.864 28.984 17.184V37.416C28.984 37.896 28.84 38.28 28.552 38.568C28.264 38.856 27.88 39 27.4 39H26.176C25.696 39 25.312 38.856 25.024 38.568C24.736 38.28 24.592 37.896 24.592 37.416V17.184C24.592 12.864 23.656 9.768 21.784 7.896C19.912 5.976 17.584 5.016 14.8 5.016C12.208 5.016 9.952 5.976 8.032 7.896C6.16 9.768 5.224 12.84 5.224 17.112V37.416C5.224 37.896 5.08 38.28 4.792 38.568C4.504 38.856 4.12 39 3.64 39H2.416ZM81.8989 39.72C76.9069 39.72 73.0189 38.208 70.2349 35.184C67.4989 32.112 66.0589 28.152 65.9149 23.304L65.8429 20.28L65.9149 17.256C66.0589 12.408 67.4989 8.472 70.2349 5.448C73.0189 2.376 76.9069 0.839998 81.8989 0.839998C86.8909 0.839998 90.7549 2.376 93.4909 5.448C96.2749 8.472 97.7389 12.408 97.8829 17.256C97.9309 17.736 97.9549 18.744 97.9549 20.28C97.9549 21.816 97.9309 22.824 97.8829 23.304C97.7389 28.152 96.2749 32.112 93.4909 35.184C90.7549 38.208 86.8909 39.72 81.8989 39.72ZM81.8989 35.544C85.3069 35.544 88.0429 34.464 90.1069 32.304C92.2189 30.096 93.3469 26.976 93.4909 22.944C93.5389 22.464 93.5629 21.576 93.5629 20.28C93.5629 18.984 93.5389 18.096 93.4909 17.616C93.3469 13.584 92.2189 10.488 90.1069 8.328C88.0429 6.12 85.3069 5.016 81.8989 5.016C78.4909 5.016 75.7309 6.12 73.6189 8.328C71.5549 10.488 70.4509 13.584 70.3069 17.616L70.2349 20.28L70.3069 22.944C70.4509 26.976 71.5549 30.096 73.6189 32.304C75.7309 34.464 78.4909 35.544 81.8989 35.544ZM155.177 39C154.697 39 154.313 38.856 154.025 38.568C153.737 38.28 153.593 37.896 153.593 37.416V3.216C153.593 2.736 153.737 2.352 154.025 2.064C154.313 1.728 154.697 1.56 155.177 1.56H156.329C156.809 1.56 157.193 1.728 157.481 2.064C157.817 2.352 157.985 2.736 157.985 3.216V6.528C159.713 3.216 162.977 1.56 167.777 1.56H170.441C170.921 1.56 171.305 1.704 171.593 1.992C171.881 2.28 172.025 2.664 172.025 3.144V4.152C172.025 4.632 171.881 5.016 171.593 5.304C171.305 5.592 170.921 5.736 170.441 5.736H167.345C164.465 5.736 162.185 6.576 160.505 8.256C158.825 9.936 157.985 12.216 157.985 15.096V37.416C157.985 37.896 157.817 38.28 157.481 38.568C157.193 38.856 156.809 39 156.329 39H155.177Z" fill="#4F4F4F"/>
<path d="M124.279 39C122.935 39 122.023 38.4 121.543 37.2L108.295 3.792L108.151 3C108.151 2.616 108.295 2.28 108.583 1.992C108.871 1.704 109.207 1.56 109.591 1.56H111.103C111.535 1.56 111.871 1.68 112.111 1.92C112.399 2.16 112.591 2.4 112.687 2.64L124.855 33.744L137.023 2.64C137.119 2.4 137.287 2.16 137.527 1.92C137.815 1.68 138.175 1.56 138.607 1.56H140.119C140.503 1.56 140.839 1.704 141.127 1.992C141.415 2.28 141.559 2.616 141.559 3L141.415 3.792L128.167 37.2C127.687 38.4 126.775 39 125.431 39H124.279Z" fill="#4F4F4F"/>
<path d="M124.279 39C122.935 39 122.023 38.4 121.543 37.2L108.295 3.792L108.151 3C108.151 2.616 108.295 2.28 108.583 1.992C108.871 1.704 109.207 1.56 109.591 1.56H111.103C111.535 1.56 111.871 1.68 112.111 1.92C112.399 2.16 112.591 2.4 112.687 2.64L124.855 33.744L137.023 2.64C137.119 2.4 137.287 2.16 137.527 1.92C137.815 1.68 138.175 1.56 138.607 1.56H140.119C140.503 1.56 140.839 1.704 141.127 1.992C141.415 2.28 141.559 2.616 141.559 3L141.415 3.792L128.167 37.2C127.687 38.4 126.775 39 125.431 39H124.279Z" fill="url(#paint0_linear)"/>
<defs>
<linearGradient id="paint0_linear" x1="84" y1="-28" x2="84" y2="57" gradientUnits="userSpaceOnUse">
<stop offset="0.369792" stop-color="#3689F7"/>
<stop offset="1" stop-opacity="0"/>
</linearGradient>
</defs>
</svg>
